<?xml version="1.0" encoding="utf-8"?>
<!-- Generator: Adobe Illustrator 23.0.3, SVG Export Plug-In . SVG Version: 6.00 Build 0)  -->
<svg version="1.1" id="Capa_1" xmlns="http://www.w3.org/2000/svg" xmlns:xlink="http://www.w3.org/1999/xlink" x="0px" y="0px"
	 viewBox="0 0 100 100" style="enable-background:new 0 0 100 100;" xml:space="preserve">
<style type="text/css">
	.st0{fill:#6C5CE7;}
	.st1{opacity:5.000000e-02;}
	.st2{fill:#656565;}
	.st3{fill:#FFFFFF;}
	.st4{fill:#595959;}
	.st5{fill:#E3E3E3;}
	.st6{fill:none;stroke:#CFCFCF;stroke-miterlimit:10;}
	.st7{opacity:0.2;}
	.st8{opacity:0.1;fill:#FFFFFF;}
	.st9{opacity:0.1;}
	.st10{fill:#FDCB6E;}
	.st11{fill:#F56462;}
	.st12{fill:#EEEEEE;}
	.st13{fill:none;stroke:#D1D1D1;stroke-width:3.6233;stroke-linecap:round;stroke-miterlimit:10;}
	.st14{fill:#7B88FF;}
	.st15{fill:#FFF3B1;}
	.st16{fill:#E6E6E6;}
	.st17{fill:none;stroke:#000000;stroke-width:2;stroke-miterlimit:10;}
	.st18{fill:#333333;}
	.st19{fill:none;}
	.st20{fill:none;stroke:#6C5CE7;stroke-width:4;stroke-miterlimit:10;}
</style>
<g>
	<path class="st0" d="M6,68.4c0-15.2,0-30,0-45c18.9,0,37.8,0,57,0c0,2.2,0,4.3,0,6.7c5,0,9.6-0.1,14.2,0.1c1.3,0.1,2.9,0.8,3.7,1.8
		c4.1,4.7,8,9.6,11.9,14.5c0.6,0.7,1.1,1.6,1.1,2.4C94,55.2,94,61.6,94,68.4c-2.4,0-4.6-0.2-6.8,0.1c-0.9,0.1-2,0.9-2.4,1.6
		c-2.1,4.4-5.2,6.7-9.7,6.6c-4.5-0.1-7.5-2.4-9-6.5c-0.5-1.5-1.3-1.8-2.7-1.8c-8.8,0.1-17.6,0-26.4,0c-1.5,0-2.3,0.3-2.9,1.9
		c-1.6,4.3-5.1,6.5-9.4,6.4c-4.2,0-7.5-2.3-9-6.5c-0.5-1.5-1.3-1.9-2.7-1.8C10.7,68.4,8.5,68.4,6,68.4z M59.7,65.2
		c0-13.2,0-26,0-38.9c-16.9,0-33.6,0-50.5,0c0,13,0,25.9,0,38.8c2,0,3.8,0,5.6,0c0.2-0.3,0.4-0.5,0.5-0.8c1.5-4.6,4.7-7.4,9.6-7.4
		c4.8-0.1,7.9,2.6,9.6,7c0.2,0.6,1.2,1.2,1.8,1.2C44,65.3,51.7,65.2,59.7,65.2z M63.1,64.9c2.1,0.9,2.5-0.4,3.1-1.8
		c2.1-5.1,7.5-7.6,12.6-5.7c3.5,1.3,5.5,4.1,6.4,7.6c2,0,3.7,0,5.6,0c0-5,0.1-9.8-0.1-14.7c0-1-0.6-2.2-1.3-3
		c-3.3-4.2-6.8-8.4-10.2-12.6c-0.5-0.6-1.3-1.5-1.9-1.5c-4.7-0.1-9.4-0.1-14.2-0.1C63.1,44,63.1,54.4,63.1,64.9z M82.1,66.7
		c0-3.7-2.9-6.6-6.6-6.7c-3.9,0-6.9,2.9-6.9,6.8c0,3.6,3.2,6.7,6.7,6.8C79.1,73.6,82.1,70.6,82.1,66.7z M31.6,66.7
		c-0.1-3.8-3.1-6.7-7-6.6c-3.7,0.1-6.6,3.2-6.5,6.9c0.1,3.6,3.2,6.7,6.8,6.7C28.7,73.6,31.7,70.5,31.6,66.7z"/>
	<path class="st0" d="M85.8,47.3c-6.3,0-11.9,0-17.6,0c0-3.9,0-7.8,0-12c2.6,0,5.1,0,7.6,0c0.5,0,1.1,0.4,1.4,0.8
		C79.9,39.6,82.7,43.2,85.8,47.3z M79.2,44.1c-3.5-5.9-4-6.2-7.8-5.3c0,1.7,0,3.4,0,5.3C74,44.1,76.4,44.1,79.2,44.1z"/>
</g>
</svg>
