<?xml version="1.0" encoding="utf-8"?>
<!-- Generator: Adobe Illustrator 23.0.3, SVG Export Plug-In . SVG Version: 6.00 Build 0)  -->
<svg version="1.1" id="Capa_1" xmlns="http://www.w3.org/2000/svg" xmlns:xlink="http://www.w3.org/1999/xlink" x="0px" y="0px"
	 viewBox="0 0 115.4 115.4" style="enable-background:new 0 0 115.4 115.4;" xml:space="preserve">
<style type="text/css">
	.st0{fill:#6C5CE7;}
	.st1{opacity:5.000000e-02;}
	.st2{fill:#656565;}
	.st3{fill:#FFFFFF;}
	.st4{fill:#595959;}
	.st5{fill:#E3E3E3;}
	.st6{fill:none;stroke:#CFCFCF;stroke-miterlimit:10;}
	.st7{opacity:0.2;}
	.st8{opacity:0.1;fill:#FFFFFF;}
	.st9{opacity:0.1;}
	.st10{fill:#FDCB6E;}
	.st11{fill:#F56462;}
	.st12{fill:#EEEEEE;}
	.st13{fill:none;stroke:#D1D1D1;stroke-width:3.6233;stroke-linecap:round;stroke-miterlimit:10;}
	.st14{fill:#7B88FF;}
	.st15{fill:#FFF3B1;}
	.st16{fill:#E6E6E6;}
	.st17{fill:none;stroke:#000000;stroke-width:2;stroke-miterlimit:10;}
	.st18{fill:#333333;}
	.st19{fill:none;}
	.st20{fill:none;stroke:#6C5CE7;stroke-width:4;stroke-miterlimit:10;}
</style>
<path class="st20" d="M57.6,94C46.7,80.9,35.8,68.2,28.8,52.9c-9.9-21.6,4-45.4,27.3-46.6c23.9-1.3,40.6,23.2,31,45.4
	c-5.7,13-14.3,24-23.2,34.9C61.9,88.9,59.9,91.3,57.6,94z M41.4,38.8C41.7,47.9,49.1,55,58,54.7c9-0.3,16.1-7.7,15.8-16.7
	c-0.3-9.1-7.6-16-16.8-15.7C48.2,22.5,41.1,30,41.4,38.8z"/>
<path class="st0" d="M48.2,88.5c-2,1-3.1,1.5-4.1,2.1c-3.5,2.2-3.7,5.2,0.1,7.1c8.9,4.3,18.1,4.3,27.1,0c3.6-1.7,3.5-4.9,0-7.1
	c-1-0.7-2.2-1.1-4-2c1.3-0.8,2.3-1.9,3.1-1.7c5.1,0.9,10.1,2.2,14.2,5.6c3.8,3.2,3.6,7.1-0.3,10.1c-4.5,3.4-9.8,4.8-15.2,5.6
	c-10.5,1.6-21,1.4-31.1-2.2c-2.6-0.9-5.1-2.3-7.2-4c-3.3-2.6-3.2-6.2-0.2-9c4.1-3.8,9.4-5,14.6-6.1C45.8,86.7,46.8,87.7,48.2,88.5z"
	/>
</svg>
